<svg width="24" height="24" viewBox="0 0 24 24" fill="none" xmlns="http://www.w3.org/2000/svg">
<g clip-path="url(#clip0_68_1816)">
<path d="M18.312 9.10684C18.0375 8.70804 17.5136 8.61371 17.1209 8.87821C16.7283 9.1427 16.6229 9.679 16.8861 10.0708C17.6798 11.2488 17.6779 12.7732 16.8816 13.9555L16.8809 13.9562C16.651 14.2959 16.6947 14.7536 16.9834 15.0423C17.0221 15.0811 17.0644 15.1163 17.1109 15.1486C17.5041 15.4104 18.0397 15.3058 18.3049 14.9124C19.4944 13.1468 19.4983 10.8683 18.312 9.10684Z" fill="#2B3350"/>
<path d="M20.7311 6.60171C20.596 6.42136 20.3909 6.30955 20.1645 6.28384C19.9332 6.25601 19.7052 6.32201 19.523 6.46904C19.1528 6.76454 19.092 7.3057 19.3869 7.67553C21.4233 10.2235 21.4193 13.7908 19.3777 16.3479C19.1041 16.6905 19.1301 17.1814 19.4385 17.4899C19.4618 17.5131 19.4857 17.5342 19.5118 17.5546C19.6907 17.6982 19.9142 17.762 20.1428 17.7363C20.3707 17.7098 20.5748 17.5973 20.7183 17.4171C23.266 14.2271 23.2722 9.78019 20.7311 6.60171Z" fill="#2B3350"/>
<path fill-rule="evenodd" clip-rule="evenodd" d="M10.6269 12.0029C10.6276 17.6435 14.5299 15.0211 14.5311 18.6117C14.5316 22.0741 15.18 23.4161 10.7931 23.4155C10.2975 23.3615 5.89489 24.2724 5.89319 12.003C5.89148 -0.267964 10.2944 0.639613 10.79 0.585796C15.1882 0.58565 14.5281 1.92741 14.5285 5.38981C14.529 8.98123 10.6261 6.36226 10.6269 12.0029Z" fill="#2B3350"/>
</g>
<defs>
<clipPath id="clip0_68_1816">
<rect width="24" height="24" fill="white" transform="translate(24) rotate(90)"/>
</clipPath>
</defs>
</svg>
