<svg width="24" height="24" viewBox="0 0 24 24" fill="none" xmlns="http://www.w3.org/2000/svg">
<path d="M3.99984 6.41384L0.756836 3.17184L2.17184 1.75684L5.41384 4.99984H20.6558C20.8117 4.99983 20.9654 5.03625 21.1047 5.1062C21.244 5.17616 21.365 5.2777 21.4581 5.40273C21.5511 5.52776 21.6137 5.67282 21.6407 5.82632C21.6678 5.97983 21.6586 6.13753 21.6138 6.28684L19.2138 14.2868C19.1521 14.4929 19.0255 14.6736 18.853 14.802C18.6804 14.9305 18.471 14.9999 18.2558 14.9998H5.99984V16.9998H16.9998V18.9998H4.99984C4.73462 18.9998 4.48027 18.8945 4.29273 18.7069C4.10519 18.5194 3.99984 18.2651 3.99984 17.9998V6.41384ZM5.49984 22.9998C5.10201 22.9998 4.72048 22.8418 4.43918 22.5605C4.15787 22.2792 3.99984 21.8977 3.99984 21.4998C3.99984 21.102 4.15787 20.7205 4.43918 20.4392C4.72048 20.1579 5.10201 19.9998 5.49984 19.9998C5.89766 19.9998 6.27919 20.1579 6.5605 20.4392C6.8418 20.7205 6.99984 21.102 6.99984 21.4998C6.99984 21.8977 6.8418 22.2792 6.5605 22.5605C6.27919 22.8418 5.89766 22.9998 5.49984 22.9998ZM17.4998 22.9998C17.102 22.9998 16.7205 22.8418 16.4392 22.5605C16.1579 22.2792 15.9998 21.8977 15.9998 21.4998C15.9998 21.102 16.1579 20.7205 16.4392 20.4392C16.7205 20.1579 17.102 19.9998 17.4998 19.9998C17.8977 19.9998 18.2792 20.1579 18.5605 20.4392C18.8418 20.7205 18.9998 21.102 18.9998 21.4998C18.9998 21.8977 18.8418 22.2792 18.5605 22.5605C18.2792 22.8418 17.8977 22.9998 17.4998 22.9998Z" fill="#2B3350"/>
</svg>
