<svg width="24" height="28" viewBox="0 0 24 28" fill="none" xmlns="http://www.w3.org/2000/svg">
<path d="M22.2205 19.9591C21.5298 19.6135 20.9955 19.1416 20.5864 18.517V18.5165C17.8925 14.4028 20.9457 11.3561 23.0058 9.90631C23.6757 9.43436 23.9639 8.59212 23.7216 7.81118L23.014 5.52737C22.7739 4.75245 22.0663 4.22084 21.253 4.20503C18.3167 4.14717 16.3318 2.33002 15.7734 1.10305C15.4688 0.433125 14.7972 0 14.0622 0H9.93766C9.20266 0 8.53109 0.433125 8.22648 1.10305C7.76153 2.12455 5.90238 4.1428 2.7468 4.20498C1.93359 4.22084 1.22594 4.7524 0.98586 5.52732L0.278204 7.81112C0.0359381 8.59206 0.324141 9.43431 0.994063 9.90626C3.05414 11.356 6.10734 14.4027 3.41344 18.517C3.00438 19.1415 2.47008 19.6135 1.77938 19.9591C0.733149 20.4816 0.417985 21.8325 1.12859 22.7712L2.60625 24.7214C3.15586 25.4471 4.14133 25.6757 4.94961 25.265C6.75266 24.349 9.31477 24.0066 11.2813 27.5761C11.5926 28.1408 12.4069 28.1416 12.7185 27.5761C14.6851 24.0066 17.2472 24.349 19.0502 25.265C19.8585 25.6757 20.844 25.4471 21.3936 24.7214L22.8713 22.7712C23.5829 21.8311 23.2652 20.481 22.2205 19.9591ZM11.9999 3.33599C13.3567 3.33599 14.4609 4.44013 14.4609 5.79698C14.4609 7.15384 13.3567 8.25798 11.9999 8.25798C10.6431 8.25798 9.53898 7.15384 9.53898 5.79698C9.53898 4.44013 10.6431 3.33599 11.9999 3.33599ZM11.9999 21.3832C11.5471 21.3832 11.1796 21.0157 11.1796 20.5629C11.1796 20.1101 11.5471 19.7426 11.9999 19.7426C12.4527 19.7426 12.8202 20.1101 12.8202 20.5629C12.8202 21.0157 12.4527 21.3832 11.9999 21.3832ZM15.5016 18.1019H8.49828C8.04547 18.1019 7.67797 17.7344 7.67797 17.2816C7.67797 16.8288 8.04547 16.4613 8.49828 16.4613H15.5016C15.9544 16.4613 16.3219 16.8288 16.3219 17.2816C16.3219 17.7344 15.9544 18.1019 15.5016 18.1019ZM15.5016 14.8206H8.49828C8.04547 14.8206 7.67797 14.4531 7.67797 14.0003C7.67797 13.5475 8.04547 13.18 8.49828 13.18H15.5016C15.9544 13.18 16.3219 13.5475 16.3219 14.0003C16.3219 14.4531 15.9544 14.8206 15.5016 14.8206ZM15.5016 11.5393H8.49828C8.04547 11.5393 7.67797 11.1718 7.67797 10.719C7.67797 10.2662 8.04547 9.89866 8.49828 9.89866H15.5016C15.9544 9.89866 16.3219 10.2662 16.3219 10.719C16.3219 11.1718 15.9544 11.5393 15.5016 11.5393ZM11.9999 6.6173C12.4522 6.6173 12.8202 6.24925 12.8202 5.79698C12.8202 5.34472 12.4522 4.97667 11.9999 4.97667C11.5477 4.97667 11.1796 5.34472 11.1796 5.79698C11.1796 6.24925 11.5477 6.6173 11.9999 6.6173Z" fill="#2B3350"/>
</svg>
