<svg width="26" height="26" viewBox="0 0 26 26" fill="none" xmlns="http://www.w3.org/2000/svg">
<path d="M22.2005 7.02891C22.8672 6.64401 22.8672 5.68175 22.2005 5.29685L13.5259 0.288753C13.2165 0.110128 12.8354 0.110129 12.526 0.288757L3.85157 5.29686C3.1849 5.68175 3.18489 6.644 3.85156 7.02891L12.5259 12.0372C12.8353 12.2158 13.2165 12.2158 13.526 12.0372L22.2005 7.02891Z" fill="#2B3350"/>
<path d="M13.8008 24.2681C13.8008 25.0379 14.6341 25.519 15.3008 25.1341L23.9781 20.1243C24.2875 19.9456 24.4781 19.6155 24.4781 19.2583V10.1641C24.4781 9.3943 23.6448 8.91317 22.9781 9.29806L14.3008 14.3078C13.9914 14.4864 13.8008 14.8165 13.8008 15.1738V24.2681Z" fill="#2B3350"/>
<path d="M3.07422 9.29806C2.40755 8.91317 1.57422 9.39429 1.57422 10.1641V19.2582C1.57422 19.6155 1.76481 19.9456 2.07421 20.1243L10.7514 25.1341C11.418 25.519 12.2514 25.0379 12.2514 24.2681V15.1738C12.2514 14.8165 12.0608 14.4864 11.7514 14.3077L3.07422 9.29806Z" fill="#2B3350"/>
</svg>
